<svg xmlns="http://www.w3.org/2000/svg" viewBox="0 0 32 32" width="32" height="32" fill="none">
  <defs>
    <linearGradient id="favicon-grad-pub" x1="0%" y1="100%" x2="100%" y2="0%">
      <stop offset="0%" stop-color="#059669" />
      <stop offset="50%" stop-color="#10b981" />
      <stop offset="100%" stop-color="#34d399" />
    </linearGradient>
    <linearGradient id="favicon-leaf-pub" x1="0%" y1="0%" x2="100%" y2="100%">
      <stop offset="0%" stop-color="#a7f3d0" />
      <stop offset="100%" stop-color="#10b981" />
    </linearGradient>
  </defs>

  <rect width="32" height="32" rx="8" fill="#090d16" />
  <rect x="7" y="10" width="3.5" height="15" rx="1.75" fill="url(#favicon-grad-pub)" />
  <path
    d="M8.5 11 C9 11 11 12 12.5 14.5 L19.5 23 C20.5 24 22 24 22.5 23 L22.5 12 C22.5 10.5 21 9.5 19.5 9.5 C18 9.5 17 10.5 17 12 L17 18 L12 10.5 C11 9 9.5 8.5 8.5 9 Z"
    fill="url(#favicon-grad-pub)"
  />
  <rect x="18" y="11" width="3.5" height="14" rx="1.75" fill="url(#favicon-grad-pub)" />
  <path
    d="M20 10 C20 4.5 26 3 26.5 3 C26.5 3.5 26.5 9.5 21.5 11 C20.5 11.2 20 10.8 20 10 Z"
    fill="url(#favicon-leaf-pub)"
  />
  <circle cx="8.75" cy="7" r="1.25" fill="#6ee7b7" />
</svg>
